<svg width="14" height="13" viewBox="0 0 14 13" fill="none" xmlns="http://www.w3.org/2000/svg">
<path id="Content" d="M13.7181 0.806948L13.3845 3.19871C12.7175 3.14277 12.1755 3.25466 11.7586 3.5344C11.3417 3.80015 11.0498 4.19179 10.8831 4.7093C10.7302 5.21283 10.7024 5.80028 10.7997 6.47166H13.7181V12.1783H8.04806V6.47166C8.04806 4.45754 8.51362 2.93296 9.44472 1.89793C10.3758 0.862896 11.8003 0.499236 13.7181 0.806948ZM6.17196 0.806948L5.83843 3.19871C5.17137 3.14277 4.62938 3.25466 4.21247 3.5344C3.79556 3.80015 3.50372 4.19179 3.33696 4.7093C3.18409 5.21283 3.15629 5.80028 3.25357 6.47166H6.17196V12.1783H0.501953V6.47166C0.501953 4.45754 0.967505 2.93296 1.89861 1.89793C2.82971 0.862896 4.25416 0.499236 6.17196 0.806948Z" fill="#FDFDFD"/>
</svg>
