
						<svg width="24" height="24" viewBox="-10 -10 44 44" fill="none" xmlns="http://www.w3.org/2000/svg">
<path d="M9.79584 3.27187C9.50336 4.53852 9 7.38837 9 12C9 16.6116 9.50336 19.4615 9.79584 20.7281M9.79584 3.27187C10.5012 3.09431 11.2396 3 12 3C12.7315 3 13.4426 3.08727 14.1235 3.25196M9.79584 3.27187C7.77614 3.78032 6.02773 4.97141 4.81027 6.58549C4.09898 7.52848 3.56892 8.61586 3.27187 9.79584M14.1235 3.25196C14.391 4.93558 15 9.08871 15 12C15 14.9113 14.391 19.0644 14.1235 20.748M14.1235 3.25196C16.1773 3.74873 17.9561 4.94996 19.1897 6.58549C19.901 7.52848 20.4311 8.61586 20.7281 9.79584M14.1235 20.748C13.4426 20.9127 12.7315 21 12 21C11.2396 21 10.5012 20.9057 9.79584 20.7281M14.1235 20.748C16.1846 20.2495 17.9688 19.0415 19.2029 17.397C19.9237 16.4366 20.4569 15.3273 20.748 14.1235M9.79584 20.7281C7.76883 20.2178 6.01508 19.02 4.79707 17.397C4.0763 16.4366 3.54313 15.3273 3.25196 14.1235M3.27187 9.79584C3.09431 10.5012 3 11.2396 3 12C3 12.7315 3.08727 13.4426 3.25196 14.1235M3.27187 9.79584C4.53852 9.50336 7.38837 9 12 9C16.6116 9 19.4615 9.50336 20.7281 9.79584M3.25196 14.1235C4.93558 14.391 9.08871 15 12 15C14.9113 15 19.0644 14.391 20.748 14.1235M20.7281 9.79584C20.9057 10.5012 21 11.2396 21 12C21 12.7315 20.9127 13.4426 20.748 14.1235" stroke="white" stroke-width="1.5" stroke-linecap="round" stroke-linejoin="round"></path>
</svg>
					