
						<svg width="24" height="24" viewBox="-10 -10 44 44" fill="none" xmlns="http://www.w3.org/2000/svg">
<path d="M16.9007 4.12591L17.4864 3.65739V3.65739L16.9007 4.12591ZM19.3426 7.17826L18.757 7.64678L19.3426 7.17826ZM12.01 19.25C12.4242 19.25 12.76 18.9142 12.76 18.5C12.76 18.0858 12.4242 17.75 12.01 17.75V19.25ZM12 17.75C11.5858 17.75 11.25 18.0858 11.25 18.5C11.25 18.9142 11.5858 19.25 12 19.25V17.75ZM9 6.25C8.58579 6.25 8.25 6.58579 8.25 7C8.25 7.41421 8.58579 7.75 9 7.75V6.25ZM15 7.75C15.4142 7.75 15.75 7.41421 15.75 7C15.75 6.58579 15.4142 6.25 15 6.25V7.75ZM19.25 9.05234V18H20.75V9.05234H19.25ZM4.75 18V6H3.25V18H4.75ZM17 20.25H7V21.75H17V20.25ZM7 3.75H14.5581V2.25H7V3.75ZM16.3151 4.59444L18.757 7.64678L19.9283 6.70974L17.4864 3.65739L16.3151 4.59444ZM14.5581 3.75C15.2416 3.75 15.8881 4.0607 16.3151 4.59444L17.4864 3.65739C16.7747 2.76784 15.6973 2.25 14.5581 2.25V3.75ZM3.25 18C3.25 20.0711 4.92893 21.75 7 21.75V20.25C5.75736 20.25 4.75 19.2426 4.75 18H3.25ZM19.25 18C19.25 19.2426 18.2426 20.25 17 20.25V21.75C19.0711 21.75 20.75 20.0711 20.75 18H19.25ZM20.75 9.05234C20.75 8.20082 20.4602 7.37466 19.9283 6.70974L18.757 7.64678C19.0761 8.04573 19.25 8.54143 19.25 9.05234H20.75ZM4.75 6C4.75 4.75736 5.75736 3.75 7 3.75V2.25C4.92893 2.25 3.25 3.92893 3.25 6H4.75ZM8.75 21V18H7.25V21H8.75ZM10 16.75H14V15.25H10V16.75ZM15.25 18V21H16.75V18H15.25ZM14 16.75C14.6904 16.75 15.25 17.3096 15.25 18H16.75C16.75 16.4812 15.5188 15.25 14 15.25V16.75ZM8.75 18C8.75 17.3096 9.30964 16.75 10 16.75V15.25C8.48122 15.25 7.25 16.4812 7.25 18H8.75ZM12.01 17.75H12V19.25H12.01V17.75ZM9 7.75H15V6.25H9V7.75Z" fill="white"></path>
</svg>
					